<?xml version="1.0" encoding="UTF-8"?>
<svg width="26px" height="25px" viewBox="0 0 26 25" version="1.1" xmlns="http://www.w3.org/2000/svg" xmlns:xlink="http://www.w3.org/1999/xlink">

        <path d="M25.6781417,22.0074542 L14.639267,1.00616714 C14.2935641,0.385506026 13.6446264,0 12.9465037,0 C12.2514145,0 11.711247,0.384668749 11.3618607,1.00425336 L0.318002391,21.9896321 C-0.0297588904,22.6099344 -0.132895569,23.3987685 0.215082386,24.0191904 C0.564577056,24.6399711 1.24894092,25 1.9439218,25 L23.7310036,25 C24.5785227,25 25.4404507,24.6195176 25.790487,23.9965839 C26.1354316,23.3775974 26.0238446,22.6276368 25.6781417,22.0074542 L25.6781417,22.0074542 Z M12.350001,7.16122596 C12.350001,6.76495495 12.6411021,6.44356039 13.0000221,6.44356039 C13.3589421,6.44356039 13.6500432,6.76495495 13.6500432,7.16122596 L13.6500432,17.4184612 C13.6500432,17.8147322 13.3589421,18.1361268 13.0000221,18.1361268 C12.6411021,18.1361268 12.350001,17.8147322 12.350001,17.4184612 L12.350001,7.16122596 L12.350001,7.16122596 Z M13.0000221,21.4322452 C12.461263,21.4322452 12.0244488,20.9829865 12.0244488,20.4288291 C12.0244488,19.8746717 12.461263,19.4252934 13.0000221,19.4252934 C13.5387813,19.4252934 13.9755954,19.8746717 13.9755954,20.4288291 C13.9755954,20.9829865 13.5387813,21.4322452 13.0000221,21.4322452 L13.0000221,21.4322452 Z" id="path-1"></path>
    <g id="Symbols" stroke="none" stroke-width="1" fill="none" fill-rule="evenodd">
        <g id="Icon/Messaging/warning" transform="translate(-11.000000, -11.000000)">
            <g id="Icon" transform="translate(11.000000, 11.000000)">
                <mask id="mask-2" fill="white">
                    <use xlink:href="#path-1"></use>
                </mask>
                <use id="Mask" fill="#384048" xlink:href="#path-1"></use>
                <g id="Color/Grayscale/10" mask="url(#mask-2)" fill="#14171A">
                    <g transform="translate(-11.000000, -11.000000)" id="Swatch">
                        <rect x="0" y="0" width="48" height="48"></rect>
                    </g>
                </g>
            </g>
        </g>
    </g>
</svg>