<?xml version="1.0" encoding="UTF-8"?>
<svg width="26px" height="26px" viewBox="0 0 26 26" version="1.1" xmlns="http://www.w3.org/2000/svg" xmlns:xlink="http://www.w3.org/1999/xlink">
    <!-- Generator: Sketch 52.5 (67469) - http://www.bohemiancoding.com/sketch -->
    <title>Icon</title>
    <desc>Created with Sketch.</desc>
    <defs>
        <path d="M25.2343464,6.78241847 L19.11173,0.74440721 C18.6431808,0.274136862 18.0374012,0 17.3742661,0 L8.59774042,0.0147506382 C7.97367174,0.0147506382 7.36204463,0.268886635 6.92024481,0.712405825 L0.935356522,6.6121611 C0.332314082,7.21743729 0,8.02247213 0,8.87863417 L0,17.2786226 C0,17.9749028 0.270230695,18.6293061 0.760428181,19.1212024 L6.81299856,25.1955902 C7.32932332,25.7143626 8.01659513,26 8.74840772,26 L17.2382798,26 C17.9779306,26 18.6729162,25.7106125 19.1945908,25.1864648 L25.0386406,19.3229611 C25.6584792,18.7005592 26,17.8738984 26,16.9934853 L26,8.63687371 C26,7.93671842 25.7277787,7.2776899 25.2343464,6.78241847 L25.2343464,6.78241847 Z M12.3075649,6.50365641 C12.3075649,6.08951349 12.6418697,5.75362395 13.0540586,5.75362395 C13.4662475,5.75362395 13.8005522,6.08951349 13.8005522,6.50365641 L13.8005522,16.4758379 C13.8005522,16.8899808 13.4662475,17.2258704 13.0540586,17.2258704 C12.6418697,17.2258704 12.3075649,16.8899808 12.3075649,16.4758379 L12.3075649,6.50365641 L12.3075649,6.50365641 Z M13.0540586,20.3781317 C12.5173297,20.3781317 12.0821239,19.9414879 12.0821239,19.4027145 C12.0821239,18.8638162 12.5173297,18.4270473 13.0540586,18.4270473 C13.5909119,18.4270473 14.0261177,18.8638162 14.0261177,19.4027145 C14.0261177,19.9413628 13.5909119,20.3781317 13.0540586,20.3781317 L13.0540586,20.3781317 Z" id="path-1"></path>
    </defs>
    <g id="Symbols" stroke="none" stroke-width="1" fill="none" fill-rule="evenodd">
        <g id="Icon/Messaging/error" transform="translate(-11.000000, -11.000000)">
            <g id="Icon" transform="translate(11.000000, 11.000000)">
                <mask id="mask-2" fill="white">
                    <use xlink:href="#path-1"></use>
                </mask>
                <use id="Mask" fill="#384048" xlink:href="#path-1"></use>
                <g id="Color/Grayscale/10" mask="url(#mask-2)" fill="#14171A">
                    <g transform="translate(-11.000000, -11.000000)" id="Swatch">
                        <rect x="0" y="0" width="48" height="48"></rect>
                    </g>
                </g>
            </g>
        </g>
    </g>
</svg>