<?xml version="1.0" encoding="UTF-8"?>
<svg width="26px" height="26px" viewBox="0 0 26 26" version="1.1" xmlns="http://www.w3.org/2000/svg" xmlns:xlink="http://www.w3.org/1999/xlink">
    <!-- Generator: Sketch 52.5 (67469) - http://www.bohemiancoding.com/sketch -->
    <title>Group 2</title>
    <desc>Created with Sketch.</desc>
    <defs>
        <path d="M13,0 C5.82031667,0 0,5.82031667 0,13 C0,20.179575 5.82031667,26 13,26 C20.179575,26 26,20.179575 26,13 C26,5.82031667 20.179575,0 13,0 L13,0 Z M20.1442,7.97155 C20.5672417,8.3947 20.5672417,9.08055833 20.1440917,9.5036 L10.7595,18.8871083 C10.547925,19.098575 10.2707,19.2044167 9.993475,19.2044167 C9.71614167,19.2044167 9.43891667,19.098575 9.22745,18.8871083 L6.038875,15.6983167 C5.61583333,15.2751667 5.61583333,14.5893083 6.038875,14.1661583 C6.462025,13.743225 7.14799167,13.7431167 7.570925,14.1661583 L9.993475,16.588925 L18.61215,7.97133333 C19.0353,7.5484 19.721375,7.54850833 20.1442,7.97155 L20.1442,7.97155 Z" id="path-1"></path>
    </defs>
    <g id="Symbols" stroke="none" stroke-width="1" fill="none" fill-rule="evenodd">
        <g id="Icon/Messaging/success" transform="translate(-11.000000, -11.000000)">
            <g id="Group-2" transform="translate(11.000000, 11.000000)">
                <mask id="mask-2" fill="white">
                    <use xlink:href="#path-1"></use>
                </mask>
                <use id="Mask" fill="#384048" xlink:href="#path-1"></use>
                <g id="Color/Grayscale/10" mask="url(#mask-2)" fill="#14171A">
                    <g transform="translate(-11.000000, -11.000000)" id="Swatch">
                        <rect x="0" y="0" width="48" height="48"></rect>
                    </g>
                </g>
            </g>
        </g>
    </g>
</svg>