<?xml version="1.0" encoding="UTF-8"?>
<svg width="26px" height="26px" viewBox="0 0 26 26" version="1.1" xmlns="http://www.w3.org/2000/svg" xmlns:xlink="http://www.w3.org/1999/xlink">
    <!-- Generator: Sketch 52.5 (67469) - http://www.bohemiancoding.com/sketch -->
    <title>Icon</title>
    <desc>Created with Sketch.</desc>
    <defs>
        <path d="M24.266625,0 L1.733375,0 C0.872375,0 0,0.854375 0,1.733375 L0,24.266625 C0,25.11725 0.83625,26 1.625,26 L24.266625,26 C25.121625,25.9845 26,25.152625 26,24.266625 L26,1.625 C26,0.863 25.127875,0 24.266625,0 L24.266625,0 Z M13,21.016625 C12.4615,21.016625 12.025,20.580125 12.025,20.04175 C12.025,19.503125 12.4615,19.066625 13,19.066625 C13.5385,19.066625 13.975,19.503125 13.975,20.04175 C13.975,20.580125 13.5385,21.016625 13,21.016625 L13,21.016625 Z M14.750875,13.42625 C14.34225,13.884625 13.782875,14.5125 13.7495,14.744125 L13.75,17.33325 C13.75,17.747375 13.414125,18.08325 13,18.08325 C12.585875,18.08325 12.25,17.747375 12.25,17.33325 L12.25,14.733375 C12.25,13.978125 12.859375,13.294125 13.631,12.428375 C14.56025,11.3855 15.71675,10.087625 15.71675,8.66675 C15.71675,7.58675 14.601,6.383375 13.000125,6.383375 C10.258125,6.383375 10.071625,8.623125 10.065,8.7185 C10.036375,9.131875 9.67725,9.44325 9.265,9.415 C8.85175,9.386375 8.54,9.02825 8.5685,8.615 C8.571125,8.577625 8.8745,4.883375 13.000125,4.883375 C14.026375,4.883375 15.070125,5.262625 15.863625,5.923875 C16.736125,6.651125 17.21675,7.625125 17.21675,8.66675 C17.216625,10.658875 15.7915,12.258375 14.750875,13.42625 L14.750875,13.42625 Z" id="path-1"></path>
    </defs>
    <g id="Symbols" stroke="none" stroke-width="1" fill="none" fill-rule="evenodd">
        <g id="Icon/Messaging/help" transform="translate(-11.000000, -11.000000)">
            <g id="Icon" transform="translate(11.000000, 11.000000)">
                <mask id="mask-2" fill="white">
                    <use xlink:href="#path-1"></use>
                </mask>
                <use id="Mask" fill="#384048" xlink:href="#path-1"></use>
                <g id="Color/Grayscale/10" mask="url(#mask-2)" fill="#14171A">
                    <g transform="translate(-11.000000, -11.000000)" id="Swatch">
                        <rect x="0" y="0" width="48" height="48"></rect>
                    </g>
                </g>
            </g>
        </g>
    </g>
</svg>